<?xml version="1.0" encoding="UTF-8"?>
<svg id="Layer_1" data-name="Layer 1" xmlns="http://www.w3.org/2000/svg" viewBox="0 0 635 215">
  <defs>
    <style>
      .cls-1 {
        fill: #4abec6;
      }
    </style>
  </defs>
  <g>
    <path d="M282.36,103.93h26.84c0,2.76-.12,5.27-.35,7.52-.23,2.25-.69,4.35-1.38,6.28-.97,2.71-2.28,5.12-3.93,7.21-1.66,2.09-3.6,3.84-5.83,5.24-2.23,1.4-4.68,2.47-7.35,3.21-2.67,.74-5.47,1.1-8.42,1.1-4.05,0-7.74-.67-11.07-2-3.33-1.33-6.2-3.21-8.59-5.62-2.39-2.42-4.25-5.31-5.59-8.69-1.33-3.38-2-7.12-2-11.21s.66-7.76,1.97-11.14c1.31-3.38,3.17-6.27,5.59-8.66,2.42-2.39,5.32-4.25,8.73-5.59,3.4-1.33,7.2-2,11.38-2,5.43,0,10.19,1.17,14.28,3.52,4.09,2.35,7.34,5.98,9.73,10.9l-12.83,5.31c-1.2-2.85-2.75-4.9-4.66-6.14-1.91-1.24-4.08-1.86-6.52-1.86-2.02,0-3.86,.38-5.52,1.14-1.66,.76-3.07,1.84-4.24,3.24-1.17,1.4-2.09,3.09-2.76,5.07-.67,1.98-1,4.19-1,6.62,0,2.21,.29,4.26,.86,6.14,.58,1.89,1.44,3.52,2.59,4.9,1.15,1.38,2.58,2.45,4.28,3.21,1.7,.76,3.68,1.14,5.93,1.14,1.33,0,2.62-.15,3.86-.45,1.24-.3,2.36-.78,3.35-1.45,.99-.67,1.8-1.53,2.45-2.59,.64-1.06,1.08-2.35,1.31-3.86h-11.11v-10.49Z"/>
    <path d="M331.28,81.03v52.02h-13.52v-52.02h13.52Z"/>
    <path d="M355.7,81.03v40.57h16.21v11.45h-29.74v-52.02h13.52Z"/>
    <path d="M412.89,124.01h-19.32l-3.1,9.04h-14.42l19.8-52.02h14.76l19.8,52.02h-14.42l-3.1-9.04Zm-3.59-10.28l-6.07-17.32-6.07,17.32h12.14Z"/>
    <path d="M436.35,81.03h20.01c3.54,0,6.87,.71,9.97,2.14,3.1,1.43,5.82,3.32,8.14,5.69,2.32,2.37,4.15,5.13,5.48,8.28,1.33,3.15,2,6.45,2,9.9s-.66,6.68-1.97,9.83c-1.31,3.15-3.13,5.92-5.45,8.31-2.32,2.39-5.04,4.3-8.14,5.73-3.1,1.43-6.45,2.14-10.04,2.14h-20.01v-52.02Zm13.52,40.57h3.11c2.35,0,4.44-.37,6.28-1.1,1.84-.74,3.39-1.75,4.66-3.04,1.26-1.29,2.23-2.82,2.9-4.59,.67-1.77,1-3.71,1-5.83s-.34-4-1.04-5.79c-.69-1.79-1.67-3.33-2.93-4.62-1.27-1.29-2.82-2.3-4.66-3.04-1.84-.74-3.91-1.1-6.21-1.1h-3.11v29.11Z"/>
    <path d="M504.1,81.03v52.02h-13.52v-52.02h13.52Z"/>
    <path d="M523.63,81.03v44.64h15.29v7.38h-23.14v-52.02h7.85Z"/>
    <path d="M579.82,120.42h-22.27l-5.79,12.63h-8.46l25.74-55.28,24.83,55.28h-8.59l-5.46-12.63Zm-3.2-7.38l-7.71-17.69-8.08,17.69h15.8Z"/>
    <path d="M600.37,133.05v-52.02h7.82c3.48,0,6.25,.27,8.32,.81,2.09,.54,3.85,1.45,5.29,2.73,1.46,1.33,2.62,2.98,3.47,4.95,.88,2,1.31,4.02,1.31,6.06,0,3.73-1.43,6.88-4.28,9.47,2.76,.94,4.94,2.59,6.54,4.95,1.62,2.34,2.43,5.05,2.43,8.15,0,4.06-1.44,7.5-4.31,10.31-1.73,1.73-3.67,2.93-5.83,3.61-2.36,.65-5.31,.98-8.86,.98h-11.89Zm7.85-29.68h2.46c2.92,0,5.06-.65,6.42-1.94,1.36-1.29,2.04-3.19,2.04-5.71s-.7-4.31-2.09-5.58c-1.39-1.27-3.41-1.9-6.06-1.9h-2.76v15.13Zm0,22.3h4.85c3.55,0,6.15-.7,7.82-2.09,1.75-1.5,2.63-3.41,2.63-5.73s-.84-4.13-2.53-5.66c-1.64-1.5-4.57-2.26-8.79-2.26h-3.97v15.73Z"/>
  </g>
  <g>
    <polygon points="89.62 169.25 126.18 169.25 142.67 196 126.62 214.73 89.62 214.73 72.67 194.66 89.62 169.25"/>
    <polygon points="65.99 191.99 81.15 165.24 49.94 134.5 19.62 149.63 19.62 165.68 40.13 191.99 65.99 191.99"/>
    <polygon class="cls-1" points="135.99 169.25 149.36 191.99 177 194.22 196.62 169.25 196.62 151.42 169.42 137.15 135.99 169.25"/>
    <polygon points="126.35 113.72 196.62 139.47 214.9 135.46 221.14 102.02 189.77 97.43 123.99 106.21 126.35 113.72"/>
    <polygon points="169.87 80.97 196.62 68.49 198.85 51.1 176.11 23.01 150.25 23.01 135.99 47.53 169.87 80.97"/>
    <polygon points="128.85 44.86 142.67 21.67 128.85 .27 90.06 .27 72.67 20.78 89.17 44.86 128.85 44.86"/>
    <polygon points="81.15 44.86 65.99 22.57 41.91 23.01 19.62 53.77 19.62 66.26 48.15 80.97 81.15 44.86"/>
    <polygon points="46.37 88.11 19.62 73.84 1.78 84.54 0 125.56 19.62 139.38 46.37 127.79 46.37 88.11"/>
  </g>
</svg>